<svg xmlns="http://www.w3.org/2000/svg" width="16" height="16">
    <path fill="#151515" fill-rule="evenodd" d="M15.297.703c.469.469.703 1 .703 1.594v11.406c0 .646-.221 1.19-.664 1.633-.443.443-.987.664-1.633.664H9.906v-5.703h2.297l.5-2.797H9.906V5.594h2.797V2.797H9.906c-.75 0-1.406.279-1.969.836-.562.557-.843 1.211-.843 1.961V7.5H5.203v2.797H7V16H2.297c-.594 0-1.125-.237-1.594-.711C.234 14.815 0 14.25 0 13.594V2.297C0 1.703.234 1.172.703.703 1.172.234 1.703 0 2.297 0h11.406c.594 0 1.125.234 1.594.703z"/>
</svg>
