<svg xmlns="http://www.w3.org/2000/svg" width="17" height="14">
    <path fill="#151515" fill-rule="evenodd" d="M6.797 13.5c.406 0 .799-.016 1.18-.047.38-.031.721-.047 1.023-.047.75-.156 1.43-.382 2.039-.679.609-.297 1.164-.675 1.664-1.133.396-.344.745-.737 1.047-1.18.302-.443.552-.914.75-1.414.198-.552.344-1.133.438-1.742.093-.61.114-1.263.062-1.961 0-.198.026-.375.078-.531.052-.157.125-.313.219-.469.406-.5.659-.813.758-.938.099-.125.148-.213.148-.265.052 0 .083-.031.094-.094l.609-.703h-1.109l.609-1.703-.906.312c-.146.042-.271.089-.375.141-.104.052-.177.104-.219.156-.156.052-.292.102-.406.149-.115.046-.25.096-.406.148-.292-.25-.631-.45-1.016-.602-.385-.15-.776-.252-1.172-.304-.406-.042-.799-.018-1.179.07-.381.089-.722.232-1.024.43-.302.156-.57.354-.805.593-.234.24-.398.511-.492.813-.104.25-.177.516-.219.797-.041.281-.036.547.016.797-.531-.073-1.036-.182-1.516-.328-.489-.157-.955-.354-1.398-.594-.443-.24-.867-.521-1.273-.844-.396-.323-.766-.698-1.11-1.125L2.5.703l-.297.594c-.198.354-.339.742-.422 1.164-.083.422-.078.836.016 1.242 0 .198.026.375.078.531.052.157.125.313.219.469l-.391-.109v.609c0 .302.049.636.149 1 .098.365.247.698.445 1 .052.052.107.123.164.211.057.089.138.185.242.289H2.5l.203.797c.146.5.383.925.711 1.273.328.35.69.623 1.086.821-.396.156-.792.297-1.187.422-.396.125-.865.286-1.407.484l-1 .297.891.5c.198.052.567.208 1.109.469.542.26 1.141.437 1.797.531.344.052.693.099 1.047.14.354.042.703.063 1.047.063z"/>
</svg>
