<svg xmlns="http://www.w3.org/2000/svg" width="16" height="16">
    <path fill="#151515" fill-rule="evenodd" d="M15.281.703c.458.469.667 1 .625 1.594v11.406c0 .646-.221 1.19-.664 1.633-.443.443-.992.664-1.648.664H2.297c-.594 0-1.125-.224-1.594-.672C.234 14.88 0 14.302 0 13.594V2.297C0 1.703.234 1.172.703.703 1.172.234 1.703 0 2.297 0h11.406c.594 0 1.12.234 1.578.703zM9.266 12.641c.541-.229 1.015-.547 1.421-.953.407-.407.729-.886.969-1.438.229-.541.344-1.125.344-1.75s-.12-1.213-.359-1.766c-.23-.541-.547-1.015-.954-1.422-.406-.406-.885-.729-1.437-.968C8.708 4.115 8.125 4 7.5 4s-1.214.12-1.766.359c-.541.23-1.015.547-1.422.953-.406.407-.729.886-.968 1.438C3.114 7.292 3 7.875 3 8.5s.12 1.214.359 1.766c.229.541.547 1.015.953 1.422.407.406.886.729 1.438.968.541.23 1.125.344 1.75.344s1.213-.12 1.766-.359zm4.281-8.094c.302-.302.453-.651.453-1.047 0-.396-.151-.745-.453-1.047C13.245 2.151 12.896 2 12.5 2c-.396 0-.745.151-1.047.453-.302.302-.453.651-.453 1.047 0 .396.151.745.453 1.047.302.302.651.453 1.047.453.396 0 .745-.151 1.047-.453zm-4.235 2.14C8.854 6.229 8.25 6 7.5 6s-1.354.229-1.813.687C5.229 7.146 5 7.75 5 8.5s.229 1.354.687 1.812C6.146 10.771 6.75 11 7.5 11s1.354-.229 1.812-.688C9.771 9.854 10 9.25 10 8.5s-.229-1.354-.688-1.813z"/>
</svg>
