<svg xmlns="http://www.w3.org/2000/svg" width="14" height="16">
    <path fill="#151515" fill-rule="evenodd" d="M3 8.703c-.323-.125-.63-.323-.922-.594-.281-.27-.515-.596-.703-.976-.187-.38-.312-.81-.375-1.289-.063-.479-.031-.995.094-1.547.125-.594.354-1.156.687-1.688.344-.52.782-.974 1.313-1.359C3.625.865 4.25.557 4.969.328 5.687.109 6.5 0 7.406 0c.969 0 1.828.141 2.578.422.75.281 1.381.662 1.891 1.141s.901 1.041 1.172 1.687c.281.646.432 1.328.453 2.047.021.823-.12 1.578-.422 2.265-.302.688-.701 1.279-1.195 1.774-.495.495-1.05.878-1.664 1.148-.615.282-1.219.422-1.813.422-.104 0-.482-.06-1.133-.179-.651-.12-1.174-.43-1.57-.93-.073.198-.187.526-.344.984-.156.459-.338.953-.546 1.485-.209.531-.433 1.052-.672 1.562-.24.521-.485.943-.735 1.266L2.703 16 2.5 14.906c-.021-.302 0-.656.063-1.062.062-.396.15-.815.265-1.258.115-.443.24-.893.375-1.352.135-.468.266-.911.391-1.328.104-.354.26-.922.469-1.703.208-.781.286-1.25.234-1.406-.146-.448-.216-.852-.211-1.211.005-.359.112-.69.32-.992.198-.448.451-.758.758-.93.307-.172.586-.258.836-.258.354 0 .643.099.867.297.224.198.336.495.336.891-.052.406-.161.883-.328 1.429-.167.547-.323 1.071-.469 1.571-.104.208-.14.406-.109.593.031.188.099.36.203.516.104.146.338.281.703.406.365.125.698.188 1 .188.448 0 .849-.13 1.203-.391.365-.25.672-.573.922-.968.25-.396.443-.829.578-1.297.125-.469.188-.917.188-1.344 0-.552-.099-1.042-.297-1.469-.198-.437-.479-.805-.844-1.101-.365-.297-.797-.529-1.297-.696-.5-.156-1.052-.234-1.656-.234-.479 0-.953.057-1.422.172-.469.115-.896.284-1.281.508-.386.224-.714.502-.985.836-.271.343-.442.739-.515 1.187-.146.646-.154 1.295-.024 1.945.131.651.274 1.102.43 1.352 0 .052-.068.354-.203.906z"/>
</svg>
